PathFileType	4	(X/Y/Z)	D:\TRACE\spotREDO_2-26-24\spot_justBody_Motion_1_4-platform.trc
DataRate	CameraRate	NumFrames	NumMarkers	Units	OrigDataRate	OrigDataStartFrame	OrigNumFrames
100.00	100.00	      66	5	mm	100.00	5251	      7000
Frame#	Time	Left_Front			Right_Front			Left_Aft			Right_Aft			Post			
		X1	Y1	Z1	X2	Y2	Z2	X3	Y3	Z3	X4	Y4	Z4	X5	Y5	Z5	

5251	52.500	-646.95294	16.63589	-569.91571	767.35162	22.91626	-485.50171	-718.30334	-16.41441	648.77130	851.99567	-8.85953	651.93835	62.05600	657.87067	-954.90094	
5252	52.510	-647.32050	16.97710	-569.78717	767.12170	23.15409	-485.39355	-718.56531	-16.61205	648.83093	851.61993	-9.05449	652.02765	61.80106	658.10583	-954.24359	
5253	52.520	-647.61621	17.36702	-569.64966	767.07574	23.57277	-485.29239	-718.73419	-16.85393	648.91748	851.51410	-9.26474	652.20404	61.36138	658.71521	-953.97156	
5254	52.530	-647.92450	17.58444	-569.61481	766.95435	23.80526	-485.06058	-718.97601	-17.08385	648.95074	851.37415	-9.57448	652.36890	61.26787	659.12878	-953.57471	
5255	52.540	-648.12518	17.66341	-569.57648	766.70752	23.94718	-485.00439	-719.18604	-17.30643	648.92322	851.25311	-9.84189	652.38800	61.02414	659.52991	-953.10181	
5256	52.550	-648.26245	17.82233	-569.54596	766.43298	24.05000	-485.09399	-719.54858	-17.69287	648.78308	850.96838	-10.05822	652.43433	60.77890	659.88074	-952.60907	
5257	52.560	-648.51373	17.90621	-569.46295	766.11121	24.11827	-485.05438	-719.77753	-17.64812	648.83508	850.61615	-10.30639	652.42303	60.21205	660.06268	-952.33575	
5258	52.570	-648.83771	18.08411	-569.37744	765.80054	24.35519	-484.95935	-719.99298	-17.71876	648.97742	850.23761	-10.54280	652.37811	60.28805	660.36517	-951.91296	
5259	52.580	-649.24164	18.38698	-569.20074	765.32532	24.70987	-484.81085	-720.45471	-18.16556	649.05963	849.97076	-10.61835	652.35687	59.78583	660.68671	-951.79883	
5260	52.590	-649.63232	18.74780	-569.09979	764.81769	25.03370	-484.78992	-720.83905	-18.37520	649.18311	849.52582	-11.00701	652.28851	59.45678	661.07422	-951.69403	
5261	52.600	-650.02368	19.10667	-569.09760	764.61292	25.05115	-484.67307	-721.24609	-18.80213	649.31598	849.15881	-11.34410	652.48022	58.95852	661.53949	-951.73834	
5262	52.610	-650.51233	19.18651	-569.12354	764.15186	25.24739	-484.61469	-721.57794	-19.08481	649.42535	849.03461	-11.72234	652.66302	58.68979	661.82819	-951.63232	
5263	52.620	-650.90381	19.34324	-569.06097	763.88818	25.41970	-484.60620	-721.96301	-19.25530	649.44104	848.62836	-11.65270	652.59094	58.25118	662.09973	-951.48169	
5264	52.630	-651.24030	19.62040	-568.99048	763.59344	25.71264	-484.50525	-722.32721	-19.37101	649.45001	848.15076	-12.14250	652.59430	57.96989	662.49628	-951.12073	
5265	52.640	-651.28320	19.69179	-568.83582	763.15216	25.82138	-484.47693	-722.71808	-19.19736	649.48901	847.66125	-12.26883	652.52753	57.62002	662.80225	-950.73401	
5266	52.650	-652.12408	19.81996	-569.03320	762.44171	25.80834	-484.41843	-723.23206	-19.36104	649.53229	846.85583	-11.93381	652.45660	56.90495	662.98389	-950.30939	
5267	52.660	-652.81653	19.94061	-568.94312	761.78943	25.95921	-484.58252	-723.75897	-19.48360	649.53345	846.71362	-11.89166	652.34784	56.27818	663.22430	-949.97339	
5268	52.670	-653.26556	20.08566	-568.83008	761.42303	25.88678	-484.56271	-724.25494	-19.73701	649.52930	846.07404	-12.50381	652.14801	55.81458	663.53424	-949.53223	
5269	52.680	-653.62274	20.19200	-568.99652	761.17560	26.05047	-484.51169	-724.39734	-20.92608	649.49127	845.61652	-12.59393	652.42328	55.50829	663.75635	-949.26056	
5270	52.690	-654.17169	20.38709	-568.89862	760.43286	26.26676	-484.53119	-725.15918	-20.71778	649.56134	845.12592	-12.98640	652.56195	54.90381	663.88599	-949.12476	
5271	52.700	-654.47894	20.50862	-568.83392	759.99310	26.30677	-484.36658	-725.59351	-20.53380	649.70374	844.88495	-13.24345	652.52966	54.62656	664.03662	-948.99969	
5272	52.710	-654.89545	20.69795	-568.74957	759.74298	26.32391	-484.18823	-725.83917	-20.48720	649.61847	844.34070	-13.50807	652.47333	53.99292	664.25421	-949.25226	
5273	52.720	-655.55890	20.91584	-568.70807	759.12933	26.40092	-484.14203	-726.48242	-20.58668	649.70624	843.62476	-13.65656	652.44373	53.19129	664.49072	-949.31287	
5274	52.730	-656.31555	21.01770	-568.75909	758.61298	26.67988	-484.24399	-727.00696	-20.81079	649.66632	843.15302	-13.90804	652.42719	52.60124	664.82892	-949.34552	
5275	52.740	-656.73755	21.10474	-568.70599	757.85468	26.89460	-484.24179	-727.79456	-20.94966	649.85687	842.70856	-13.86977	652.55121	52.25434	664.97296	-949.26086	
5276	52.750	-657.29266	21.25099	-568.61932	757.37592	26.98775	-484.12253	-728.40796	-21.24936	649.84326	842.17017	-13.90244	652.71759	51.70559	665.25482	-949.13245	
5277	52.760	-657.87250	21.34599	-568.58716	756.96515	27.01152	-484.10645	-728.71271	-21.41264	649.78333	841.57343	-14.09467	652.77209	51.00056	665.52899	-948.95471	
5278	52.770	-658.38312	21.33241	-568.62274	756.44928	26.99176	-483.95721	-729.16211	-21.51088	649.79785	840.89197	-14.10029	652.64386	50.41418	665.65967	-948.65680	
5279	52.780	-659.03192	21.38825	-568.61548	755.63397	27.18583	-483.95865	-729.94080	-21.55478	649.89856	840.16394	-14.50379	652.48157	49.63418	665.69177	-948.21381	
5280	52.790	-659.75452	21.42712	-568.63782	754.87933	27.33773	-484.02045	-730.67230	-21.71638	649.92963	839.33081	-14.61359	652.75580	48.86131	665.72644	-947.74731	
5281	52.800	-660.04742	21.34452	-568.83606	754.42163	27.31258	-483.88037	-731.12268	-21.68153	649.98615	839.20569	-14.63538	652.79773	48.27391	665.91217	-947.28748	
5282	52.810	-661.06012	21.74614	-568.54761	754.12518	27.14604	-483.84457	-731.62512	-21.77980	650.04266	838.56921	-14.40828	652.92267	47.66774	665.90784	-946.92468	
5283	52.820	-661.76837	21.92003	-568.46216	752.99054	27.21136	-483.94574	-732.43933	-21.94872	650.00690	837.69751	-14.28077	652.94733	47.24261	665.90851	-946.91284	
5284	52.830	-662.14734	21.84369	-568.39075	752.24719	27.23945	-483.94781	-733.14874	-22.00559	650.09845	837.14374	-14.33708	652.78772	46.08340	666.24152	-947.10699	
5285	52.840	-663.08398	21.80267	-568.34253	751.80255	27.40773	-483.95737	-733.88513	-21.99552	650.21368	836.39618	-14.70408	652.62555	45.36026	666.26923	-947.51483	
5286	52.850	-663.63019	21.86919	-568.38220	751.21497	27.35814	-483.92911	-734.57178	-22.24168	650.19189	835.58539	-15.04986	652.64453	44.98169	666.42236	-947.50897	
5287	52.860	-664.24127	22.12040	-568.35376	750.43665	27.61559	-483.82196	-735.18127	-22.22266	650.26489	835.06873	-15.03414	652.60876	44.29337	666.52710	-947.79102	
5288	52.870	-664.98883	22.12275	-568.48529	749.65259	27.70861	-483.90298	-735.86493	-22.51357	650.12738	834.48822	-14.84343	652.74670	44.04580	666.71124	-947.87103	
5289	52.880	-665.54980	21.95528	-568.52399	748.97705	27.70435	-483.79419	-736.48431	-22.22709	649.96881	833.70978	-15.00189	652.71906	43.27703	666.76782	-947.88074	
5290	52.890	-666.30524	21.99041	-568.32037	748.32538	27.69801	-483.79022	-736.98438	-22.95383	650.05853	833.08862	-14.60360	652.95538	42.31405	666.73657	-947.82690	
5291	52.900	-667.12042	21.99783	-568.31732	747.62262	27.71209	-483.77612	-738.24579	-22.23965	650.04724	832.00183	-14.88543	652.92529	41.81904	666.78876	-947.56189	
5292	52.910	-667.75854	22.04468	-568.18561	746.65741	27.69657	-483.97162	-738.80591	-22.24671	650.08142	831.49890	-15.10563	652.90259	41.25457	666.78473	-947.21167	
5293	52.920	-668.65314	22.09298	-568.21936	745.94470	27.52698	-483.77975	-739.53076	-22.21981	650.08289	830.66150	-15.08847	652.93152	40.41941	666.80493	-946.75452	
5294	52.930	-669.43634	22.31649	-568.26910	745.11810	27.58093	-483.70963	-740.39575	-22.09301	650.28839	829.72205	-14.89778	653.03497	39.45976	666.82849	-946.50024	
5295	52.940	-670.28674	22.38208	-568.30939	744.59723	27.65760	-483.67410	-741.33429	-22.07007	650.18427	828.93903	-14.92586	653.14264	38.92501	666.90778	-946.48608	
5296	52.950	-670.86780	22.39299	-568.32874	743.81061	27.80422	-483.79559	-742.00861	-22.15172	650.20416	828.34528	-15.01875	653.19958	38.09326	667.02209	-946.39417	
5297	52.960	-671.87616	22.31705	-568.36316	742.69421	27.94427	-483.87244	-742.82672	-22.17636	650.07452	827.37140	-14.93337	653.07098	37.36507	667.07733	-946.63306	
5298	52.970	-672.65002	22.50018	-568.26556	742.27216	27.78442	-483.61646	-743.79059	-22.33198	650.05536	826.50482	-15.00438	653.10974	36.55754	667.02301	-946.68646	
5299	52.980	-673.58179	22.43340	-568.32617	741.31342	27.75062	-483.78040	-744.47864	-22.47507	649.99982	825.76154	-14.96943	653.30969	35.73425	666.94299	-946.80139	
5300	52.990	-674.33606	22.25405	-568.31763	740.16650	27.72939	-483.82849	-745.24377	-22.35191	649.99933	824.90021	-14.74334	653.49335	34.68613	666.93024	-947.01874	
5301	53.000	-675.02112	22.09994	-568.37726	739.57990	27.69600	-483.69061	-746.13831	-22.30837	650.06012	824.16351	-15.04125	653.48303	33.85251	666.92145	-947.38690	
5302	53.010	-675.79266	22.17305	-568.43335	738.82434	27.42081	-483.68536	-746.94342	-22.52549	650.06622	823.20123	-15.41810	653.17474	33.38263	666.91174	-947.58881	
5303	53.020	-676.51678	22.14944	-568.34259	737.83832	27.67802	-483.72205	-747.71509	-22.36582	650.09570	822.34290	-15.00469	653.10773	32.66603	666.80670	-947.26093	
5304	53.030	-677.70544	21.91127	-568.35260	737.09821	27.62467	-483.86621	-748.80786	-22.17144	650.00415	821.58398	-14.96616	653.21332	31.41442	666.68024	-947.52698	
5305	53.040	-678.52252	21.89059	-568.29681	736.15961	27.46246	-483.87845	-749.62091	-22.11321	650.01917	820.70673	-14.83476	653.31158	30.35052	666.58447	-947.41754	
5306	53.050	-679.55188	21.94351	-568.44800	735.43506	27.35029	-483.83569	-750.42218	-22.09323	650.15527	819.77655	-14.71991	653.16010	29.74312	666.54437	-947.33856	
5307	53.060	-680.17737	21.90119	-568.35016	734.33551	27.39336	-484.01944	-751.26624	-22.08258	650.05969	819.02271	-14.82120	653.08282	28.86572	666.48810	-947.36487	
5308	53.070	-681.34784	22.01277	-568.45062	733.36298	27.30173	-483.92505	-752.12329	-22.34915	650.02960	818.02820	-14.86953	653.02637	27.98335	666.49738	-947.11902	
5309	53.080	-682.00299	21.94217	-568.30402	732.69244	27.30500	-483.77466	-753.23413	-21.68888	650.03662	817.43970	-14.88058	652.96198	27.11069	666.50403	-947.26740	
5310	53.090	-683.19214	21.88147	-568.36255	732.06702	27.29701	-483.87311	-754.04382	-21.75104	649.78943	816.26978	-14.81979	653.05060	26.14783	666.44806	-947.16522	
5311	53.100	-683.89398	21.96486	-568.22626	730.73926	27.26127	-483.70969	-754.80469	-22.04425	649.84924	815.27631	-14.76683	653.00702	25.36931	666.30695	-947.46735	
5312	53.110	-684.79211	21.89840	-568.22540	730.08997	27.32097	-483.68167	-755.87048	-21.89657	649.84521	814.58490	-14.54908	653.16211	24.47143	666.11603	-947.64264	
5313	53.120	-685.66547	21.82278	-568.30432	729.14954	27.10435	-483.79990	-756.77277	-21.62550	649.90765	813.32208	-14.52934	653.16443	23.43581	666.22388	-947.54230	
5314	53.130	-686.67938	21.76320	-568.45258	727.94409	27.11456	-483.82547	-757.50476	-21.91646	649.94495	812.63025	-14.44985	653.10260	22.55982	666.18854	-947.73560	
5315	53.140	-687.65112	21.72541	-568.54492	727.27032	27.00313	-483.91147	-758.68268	-21.64996	649.91199	811.63934	-14.38320	653.15411	21.64959	666.06030	-947.75500	
5316	53.150	-688.66357	21.50381	-568.56909	726.22937	26.99978	-484.00037	-759.66254	-21.45012	649.89301	810.40399	-14.39013	653.12592	20.70298	665.72510	-947.87524	
